<svg width="362" height="197" viewBox="0 0 362 197" fill="none" xmlns="http://www.w3.org/2000/svg">
<g clip-path="url(#clip0)">
<path d="M112.854 42.0007L95.9954 71.0985L79.1373 42.0007H22.9973L95.9954 167.999L168.994 42.0007H112.854Z" fill="#41B883"/>
<path d="M112.854 42.0006L95.9954 71.0985L79.1373 42.0006H52.1965L95.9954 117.598L139.794 42.0006H112.854Z" fill="#34495E"/>
</g>
<path d="M336.235 46.6587L269.368 166.377C267.987 168.848 264.44 168.863 263.039 166.403L194.846 46.6702C193.319 43.9898 195.608 40.743 198.642 41.2859L265.581 53.2656C266.008 53.342 266.445 53.3413 266.872 53.2634L332.412 41.3031C335.435 40.7514 337.735 43.973 336.235 46.6587Z" fill="url(#paint0_linear)"/>
<path d="M297.468 25.5729L247.984 35.281C247.17 35.4405 246.568 36.1306 246.519 36.9588L243.475 88.432C243.404 89.6443 244.516 90.5853 245.698 90.3124L259.475 87.129C260.764 86.8313 261.928 87.968 261.663 89.2659L257.57 109.334C257.295 110.685 258.561 111.84 259.879 111.439L268.388 108.85C269.707 108.449 270.975 109.608 270.696 110.959L264.191 142.482C263.784 144.454 266.403 145.529 267.496 143.838L268.226 142.709L308.548 62.1401C309.223 60.791 308.059 59.2528 306.579 59.5387L292.398 62.2791C291.065 62.5363 289.931 61.2937 290.307 59.9883L299.563 27.8625C299.94 26.5548 298.802 25.3112 297.468 25.5729Z" fill="url(#paint1_linear)"/>
<g clip-path="url(#clip1)">
<path fill-rule="evenodd" clip-rule="evenodd" d="M177.97 90.4061C177.952 87.9676 179.916 85.9949 182.36 86C184.803 86.0057 186.799 87.9869 186.818 90.4252L186.893 101.119L197.618 101.194C200.041 101.214 202.003 103.205 202 105.642C201.997 108.079 200.029 110.037 197.606 110.017L186.955 109.943L187.029 120.594C187.048 123.032 185.083 125.005 182.64 125C180.197 124.994 178.201 123.013 178.182 120.575L178.107 109.881L167.382 109.806C164.959 109.786 162.997 107.794 163 105.358C163.003 102.921 164.971 100.963 167.394 100.983L178.045 101.057L177.97 90.4061Z" fill="url(#paint2_linear)"/>
</g>
<defs>
<linearGradient id="paint0_linear" x1="193.181" y1="37.0074" x2="276.535" y2="150.071" gradientUnits="userSpaceOnUse">
<stop stop-color="#41D1FF"/>
<stop offset="1" stop-color="#BD34FE"/>
</linearGradient>
<linearGradient id="paint1_linear" x1="261.739" y1="28.2086" x2="276.83" y2="131.602" gradientUnits="userSpaceOnUse">
<stop stop-color="#FFEA83"/>
<stop offset="0.0833333" stop-color="#FFDD35"/>
<stop offset="1" stop-color="#FFA800"/>
</linearGradient>
<linearGradient id="paint2_linear" x1="163" y1="105.5" x2="202" y2="105.5" gradientUnits="userSpaceOnUse">
<stop stop-color="#41B883"/>
<stop offset="1" stop-color="#8280FF"/>
</linearGradient>
<clipPath id="clip0">
<rect width="146" height="126" fill="white" transform="translate(23 42)"/>
</clipPath>
<clipPath id="clip1">
<rect width="39" height="39" fill="white" transform="translate(163 125) rotate(-90)"/>
</clipPath>
</defs>
</svg>
